<?xml version="1.0" encoding="utf-8"?>
<!-- Generator: Adobe Illustrator 18.1.1, SVG Export Plug-In . SVG Version: 6.00 Build 0)  -->
<svg version="1.1" id="Layer_1" xmlns="http://www.w3.org/2000/svg" xmlns:xlink="http://www.w3.org/1999/xlink" x="0px" y="0px"
	 viewBox="0 0 408 261" enable-background="new 0 0 408 261" xml:space="preserve">
<path fill="#F9F9F9" stroke="#007AA5" stroke-linecap="round" stroke-linejoin="round" stroke-miterlimit="10" d="M184.2,62.8
	L28.1,94.4l-2.4-12c-0.7-3.6,1.5-7.1,5.2-7.9l142.9-29c3.6-0.7,7.1,1.5,7.9,5.2L184.2,62.8L184.2,62.8z"/>
<path fill="#D4E8EF" stroke="#007AA5" stroke-linecap="round" stroke-linejoin="round" stroke-miterlimit="10" d="M206.7,207.7
	l-142.9,29c-3.6,0.7-7.1-1.3-8.3-7.2L28.1,94.3l156-31.6l27.4,135.2C212.7,203.7,210.3,206.9,206.7,207.7z"/>
<circle fill="#F6F7F7" stroke="#007AA5" stroke-linecap="round" stroke-linejoin="round" stroke-miterlimit="10" cx="39.4" cy="82.8" r="2.1"/>
<circle fill="#F6F7F7" stroke="#007AA5" stroke-linecap="round" stroke-linejoin="round" stroke-miterlimit="10" cx="48.2" cy="81" r="2.1"/>
<circle fill="#F6F7F7" stroke="#007AA5" stroke-linecap="round" stroke-linejoin="round" stroke-miterlimit="10" cx="57" cy="79.2" r="2.1"/>
<rect x="46.9" y="99" transform="matrix(-0.9801 0.1987 -0.1987 -0.9801 252.4206 221.6419)" fill="#99CBE1" stroke="#007AA5" stroke-linecap="round" stroke-linejoin="round" stroke-miterlimit="10" width="136.4" height="49"/>
<rect x="59.5" y="174.7" transform="matrix(-0.9801 0.1987 -0.1987 -0.9801 177.0705 351.9017)" fill="#99CBE1" stroke="#007AA5" stroke-linecap="round" stroke-linejoin="round" stroke-miterlimit="10" width="22.8" height="20.2"/>
<rect x="86.5" y="169.2" transform="matrix(-0.9801 0.1987 -0.1987 -0.9801 229.497 335.6838)" fill="#99CBE1" stroke="#007AA5" stroke-linecap="round" stroke-linejoin="round" stroke-miterlimit="10" width="22.8" height="20.2"/>
<rect x="113.6" y="163.7" transform="matrix(-0.9801 0.1987 -0.1987 -0.9801 282.0645 319.4223)" fill="#99CBE1" stroke="#007AA5" stroke-linecap="round" stroke-linejoin="round" stroke-miterlimit="10" width="22.8" height="20.2"/>
<rect x="141.2" y="158.1" transform="matrix(-0.9801 0.1987 -0.1987 -0.9801 335.6332 302.8511)" fill="#99CBE1" stroke="#007AA5" stroke-linecap="round" stroke-linejoin="round" stroke-miterlimit="10" width="22.8" height="20.2"/>
<rect x="168.3" y="152.6" transform="matrix(-0.9801 0.1987 -0.1987 -0.9801 388.6768 286.4423)" fill="#99CBE1" stroke="#007AA5" stroke-linecap="round" stroke-linejoin="round" stroke-miterlimit="10" width="23.4" height="20.2"/>
<line fill="none" stroke="#007AA5" stroke-linecap="round" stroke-linejoin="round" stroke-miterlimit="10" x1="56.3" y1="170.1" x2="111" y2="159"/>
<rect x="66.9" y="215.3" transform="matrix(-0.9801 0.1987 -0.1987 -0.9801 199.5341 428.8897)" fill="#99CBE1" stroke="#007AA5" stroke-linecap="round" stroke-linejoin="round" stroke-miterlimit="10" width="22.8" height="18.3"/>
<rect x="93.9" y="209.8" transform="matrix(-0.9801 0.1987 -0.1987 -0.9801 251.9605 412.6718)" fill="#99CBE1" stroke="#007AA5" stroke-linecap="round" stroke-linejoin="round" stroke-miterlimit="10" width="22.8" height="18.3"/>
<rect x="121" y="204.3" transform="matrix(-0.9801 0.1987 -0.1987 -0.9801 304.528 396.4103)" fill="#99CBE1" stroke="#007AA5" stroke-linecap="round" stroke-linejoin="round" stroke-miterlimit="10" width="22.8" height="18.3"/>
<rect x="148.6" y="198.7" transform="matrix(-0.9801 0.1987 -0.1987 -0.9801 358.0967 379.8391)" fill="#99CBE1" stroke="#007AA5" stroke-linecap="round" stroke-linejoin="round" stroke-miterlimit="10" width="22.8" height="18.3"/>
<rect x="175.6" y="193.2" transform="matrix(-0.9801 0.1987 -0.1987 -0.9801 411.1404 363.4303)" fill="#99CBE1" stroke="#007AA5" stroke-linecap="round" stroke-linejoin="round" stroke-miterlimit="10" width="23.4" height="18.3"/>
<line fill="none" stroke="#007AA5" stroke-linecap="round" stroke-linejoin="round" stroke-miterlimit="10" x1="63.8" y1="210.7" x2="118.6" y2="199.6"/>
<rect x="41.4" y="99.4" transform="matrix(-0.9801 0.1987 -0.1987 -0.9801 120.141 191.9324)" fill="none" stroke="#007AA5" stroke-linecap="round" stroke-linejoin="round" stroke-miterlimit="10" width="18" height="5.2"/>
<g>
	
		<rect x="167.5" y="74.9" transform="matrix(-0.9801 0.1987 -0.1987 -0.9801 354.7659 119.3523)" fill="none" stroke="#007AA5" stroke-linecap="round" stroke-linejoin="round" stroke-miterlimit="10" width="7.7" height="5.2"/>
	
		<rect x="155.4" y="77.3" transform="matrix(-0.9801 0.1987 -0.1987 -0.9801 331.3158 126.6065)" fill="none" stroke="#007AA5" stroke-linecap="round" stroke-linejoin="round" stroke-miterlimit="10" width="7.7" height="5.2"/>
	
		<rect x="143.3" y="79.8" transform="matrix(-0.9801 0.1987 -0.1987 -0.9801 307.7422 133.8988)" fill="none" stroke="#007AA5" stroke-linecap="round" stroke-linejoin="round" stroke-miterlimit="10" width="7.7" height="5.2"/>
	
		<rect x="131.2" y="82.2" transform="matrix(-0.9801 0.1987 -0.1987 -0.9801 284.2921 141.1531)" fill="none" stroke="#007AA5" stroke-linecap="round" stroke-linejoin="round" stroke-miterlimit="10" width="7.7" height="5.2"/>
	
		<rect x="119.1" y="84.7" transform="matrix(-0.9801 0.1987 -0.1987 -0.9801 260.8419 148.4073)" fill="none" stroke="#007AA5" stroke-linecap="round" stroke-linejoin="round" stroke-miterlimit="10" width="7.7" height="5.2"/>
</g>
<path fill="#F9F9F9" stroke="#007AA5" stroke-linecap="round" stroke-linejoin="round" stroke-miterlimit="10" d="M365,92
	L208.6,61.9l2.3-12c0.7-3.6,4.1-6,7.8-5.3L362,72.2c3.6,0.7,6,4.1,5.3,7.8L365,92L365,92z"/>
<path fill="#D4E8EF" stroke="#007AA5" stroke-linecap="round" stroke-linejoin="round" stroke-miterlimit="10" d="M330.8,234.6
	L187.6,207c-3.6-0.7-6.1-3.9-4.9-9.8l26-135.4L365,91.9L339,227.4C337.9,233.2,334.4,235.3,330.8,234.6z"/>
<circle fill="#F6F7F7" stroke="#007AA5" stroke-linecap="round" stroke-linejoin="round" stroke-miterlimit="10" cx="223.6" cy="55.5" r="2.1"/>
<circle fill="#F6F7F7" stroke="#007AA5" stroke-linecap="round" stroke-linejoin="round" stroke-miterlimit="10" cx="232.4" cy="57.2" r="2.1"/>
<circle fill="#F6F7F7" stroke="#007AA5" stroke-linecap="round" stroke-linejoin="round" stroke-miterlimit="10" cx="241.2" cy="58.9" r="2.1"/>
<rect x="217.3" y="74.7" transform="matrix(-0.982 -0.1889 0.1889 -0.982 434.0074 195.9727)" fill="none" stroke="#007AA5" stroke-linecap="round" stroke-linejoin="round" stroke-miterlimit="10" width="18" height="5.2"/>
<g>
	
		<rect x="343.7" y="98" transform="matrix(-0.982 -0.1889 0.1889 -0.982 669.8085 265.0635)" fill="none" stroke="#007AA5" stroke-linecap="round" stroke-linejoin="round" stroke-miterlimit="10" width="7.7" height="5.2"/>
	
		<rect x="331.6" y="95.7" transform="matrix(-0.982 -0.1889 0.1889 -0.982 646.2408 258.158)" fill="none" stroke="#007AA5" stroke-linecap="round" stroke-linejoin="round" stroke-miterlimit="10" width="7.7" height="5.2"/>
	
		<rect x="319.4" y="93.3" transform="matrix(-0.982 -0.1889 0.1889 -0.982 622.5491 251.2162)" fill="none" stroke="#007AA5" stroke-linecap="round" stroke-linejoin="round" stroke-miterlimit="10" width="7.7" height="5.2"/>
	
		<rect x="307.3" y="91" transform="matrix(-0.982 -0.1889 0.1889 -0.982 598.9813 244.3108)" fill="none" stroke="#007AA5" stroke-linecap="round" stroke-linejoin="round" stroke-miterlimit="10" width="7.7" height="5.2"/>
	
		<rect x="295.2" y="88.7" transform="matrix(-0.982 -0.1889 0.1889 -0.982 575.4136 237.4054)" fill="none" stroke="#007AA5" stroke-linecap="round" stroke-linejoin="round" stroke-miterlimit="10" width="7.7" height="5.2"/>
</g>
<rect x="211.5" y="101.1" transform="matrix(-0.982 -0.1889 0.1889 -0.982 418.4428 255.9886)" fill="#99CBE1" stroke="#007AA5" stroke-linecap="round" stroke-linejoin="round" stroke-miterlimit="10" width="19.9" height="13.8"/>
<line fill="none" stroke="#007AA5" stroke-linecap="round" stroke-linejoin="round" stroke-miterlimit="10" x1="238.6" y1="105.5" x2="269.1" y2="111.4"/>
<line fill="none" stroke="#007AA5" stroke-linecap="round" stroke-linejoin="round" stroke-miterlimit="10" x1="237.5" y1="111.2" x2="273.8" y2="118.2"/>
<rect x="208" y="119.2" transform="matrix(-0.982 -0.1889 0.1889 -0.982 408.1433 291.1398)" fill="#99CBE1" stroke="#007AA5" stroke-linecap="round" stroke-linejoin="round" stroke-miterlimit="10" width="19.9" height="13.8"/>
<line fill="none" stroke="#007AA5" stroke-linecap="round" stroke-linejoin="round" stroke-miterlimit="10" x1="235.1" y1="123.6" x2="265.7" y2="129.4"/>
<line fill="none" stroke="#007AA5" stroke-linecap="round" stroke-linejoin="round" stroke-miterlimit="10" x1="234" y1="129.3" x2="270.3" y2="136.3"/>
<rect x="204.1" y="139.1" transform="matrix(-0.982 -0.1889 0.1889 -0.982 396.7929 329.8778)" fill="#99CBE1" stroke="#007AA5" stroke-linecap="round" stroke-linejoin="round" stroke-miterlimit="10" width="19.9" height="13.8"/>
<line fill="none" stroke="#007AA5" stroke-linecap="round" stroke-linejoin="round" stroke-miterlimit="10" x1="231.3" y1="143.5" x2="261.8" y2="149.3"/>
<line fill="none" stroke="#007AA5" stroke-linecap="round" stroke-linejoin="round" stroke-miterlimit="10" x1="230.2" y1="149.2" x2="266.5" y2="156.2"/>
<rect x="200.1" y="160" transform="matrix(-0.982 -0.1889 0.1889 -0.982 384.9083 370.4393)" fill="#99CBE1" stroke="#007AA5" stroke-linecap="round" stroke-linejoin="round" stroke-miterlimit="10" width="19.9" height="13.8"/>
<line fill="none" stroke="#007AA5" stroke-linecap="round" stroke-linejoin="round" stroke-miterlimit="10" x1="227.3" y1="164.3" x2="257.8" y2="170.2"/>
<line fill="none" stroke="#007AA5" stroke-linecap="round" stroke-linejoin="round" stroke-miterlimit="10" x1="226.2" y1="170.1" x2="262.5" y2="177"/>
<rect x="196" y="181.4" transform="matrix(-0.982 -0.1889 0.1889 -0.982 372.7171 412.0468)" fill="#99CBE1" stroke="#007AA5" stroke-linecap="round" stroke-linejoin="round" stroke-miterlimit="10" width="19.9" height="13.8"/>
<line fill="none" stroke="#007AA5" stroke-linecap="round" stroke-linejoin="round" stroke-miterlimit="10" x1="223.2" y1="185.7" x2="253.7" y2="191.6"/>
<line fill="none" stroke="#007AA5" stroke-linecap="round" stroke-linejoin="round" stroke-miterlimit="10" x1="222.1" y1="191.4" x2="258.4" y2="198.4"/>
<line fill="none" stroke="#007AA5" stroke-linecap="round" stroke-linejoin="round" stroke-miterlimit="10" x1="214.5" y1="90.2" x2="269.3" y2="100.7"/>
<rect x="287.3" y="110.7" transform="matrix(-0.982 -0.1889 0.1889 -0.982 600.6414 327.4966)" fill="#99CBE1" stroke="#007AA5" stroke-linecap="round" stroke-linejoin="round" stroke-miterlimit="10" width="57.3" height="49"/>
<g>
	
		<rect x="291.3" y="145.6" transform="matrix(-0.982 -0.1889 0.1889 -0.982 592.3987 356.0332)" fill="#007AA5" stroke="#007AA5" stroke-linecap="round" stroke-linejoin="round" stroke-miterlimit="10" width="43.7" height="8.4"/>
</g>
<line fill="none" stroke="#007AA5" stroke-linecap="round" stroke-linejoin="round" stroke-miterlimit="10" x1="300.5" y1="117.6" x2="331" y2="123.4"/>
<line fill="none" stroke="#007AA5" stroke-linecap="round" stroke-linejoin="round" stroke-miterlimit="10" x1="298.3" y1="129" x2="326.2" y2="134.4"/>
<line fill="none" stroke="#007AA5" stroke-linecap="round" stroke-linejoin="round" stroke-miterlimit="10" x1="299.4" y1="123.3" x2="335.7" y2="130.3"/>
<line fill="none" stroke="#007AA5" stroke-linecap="round" stroke-linejoin="round" stroke-miterlimit="10" x1="294.9" y1="163.9" x2="325.4" y2="169.8"/>
<path fill="#F9F9F9" stroke="#007AA5" stroke-linecap="round" stroke-linejoin="round" stroke-miterlimit="10" d="M273.8,71.4H114.5
	V59.2c0-3.6,2.9-6.7,6.7-6.7H267c3.6,0,6.7,2.9,6.7,6.7L273.8,71.4L273.8,71.4z"/>
<path fill="#D4E8EF" stroke="#007AA5" stroke-linecap="round" stroke-linejoin="round" stroke-miterlimit="10" d="M267.1,217.9
	H121.3c-3.6,0-6.7-2.7-6.7-8.7V71.3h159.2v138C273.8,215.2,270.8,217.9,267.1,217.9z"/>
<circle fill="#F6F7F7" stroke="#007AA5" stroke-linecap="round" stroke-linejoin="round" stroke-miterlimit="10" cx="128" cy="62.3" r="2.1"/>
<circle fill="#F6F7F7" stroke="#007AA5" stroke-linecap="round" stroke-linejoin="round" stroke-miterlimit="10" cx="136.9" cy="62.3" r="2.1"/>
<circle fill="#F6F7F7" stroke="#007AA5" stroke-linecap="round" stroke-linejoin="round" stroke-miterlimit="10" cx="145.9" cy="62.3" r="2.1"/>
<rect x="125.8" y="80.6" fill="none" stroke="#007AA5" stroke-linecap="round" stroke-linejoin="round" stroke-miterlimit="10" width="18" height="5.2"/>
<g>
	
		<rect x="254.4" y="80.6" fill="none" stroke="#007AA5" stroke-linecap="round" stroke-linejoin="round" stroke-miterlimit="10" width="7.7" height="5.2"/>
	
		<rect x="242" y="80.6" fill="none" stroke="#007AA5" stroke-linecap="round" stroke-linejoin="round" stroke-miterlimit="10" width="7.7" height="5.2"/>
	
		<rect x="229.6" y="80.6" fill="none" stroke="#007AA5" stroke-linecap="round" stroke-linejoin="round" stroke-miterlimit="10" width="7.7" height="5.2"/>
	
		<rect x="217.3" y="80.6" fill="none" stroke="#007AA5" stroke-linecap="round" stroke-linejoin="round" stroke-miterlimit="10" width="7.7" height="5.2"/>
	
		<rect x="205" y="80.6" fill="none" stroke="#007AA5" stroke-linecap="round" stroke-linejoin="round" stroke-miterlimit="10" width="7.7" height="5.2"/>
</g>
<rect x="125.8" y="98.6" fill="#99CBE1" stroke="#007AA5" stroke-linecap="round" stroke-linejoin="round" stroke-miterlimit="10" width="68.4" height="61.9"/>
<rect x="125.8" y="165.4" fill="#99CBE1" stroke="#007AA5" stroke-linecap="round" stroke-linejoin="round" stroke-miterlimit="10" width="19.9" height="13.8"/>
<rect x="150" y="165.4" fill="#99CBE1" stroke="#007AA5" stroke-linecap="round" stroke-linejoin="round" stroke-miterlimit="10" width="19.9" height="13.8"/>
<rect x="174.2" y="165.4" fill="#99CBE1" stroke="#007AA5" stroke-linecap="round" stroke-linejoin="round" stroke-miterlimit="10" width="19.9" height="13.8"/>
<line fill="none" stroke="#007AA5" stroke-linecap="round" stroke-linejoin="round" stroke-miterlimit="10" x1="205.5" y1="98.6" x2="236.6" y2="98.6"/>
<line fill="none" stroke="#007AA5" stroke-linecap="round" stroke-linejoin="round" stroke-miterlimit="10" x1="205.5" y1="110.3" x2="233.9" y2="110.3"/>
<line fill="none" stroke="#007AA5" stroke-linecap="round" stroke-linejoin="round" stroke-miterlimit="10" x1="205.5" y1="104.4" x2="242.5" y2="104.4"/>
<line fill="none" stroke="#007AA5" stroke-linecap="round" stroke-linejoin="round" stroke-miterlimit="10" x1="205.5" y1="119.6" x2="236.6" y2="119.6"/>
<line fill="none" stroke="#007AA5" stroke-linecap="round" stroke-linejoin="round" stroke-miterlimit="10" x1="205.5" y1="131.3" x2="233.9" y2="131.3"/>
<line fill="none" stroke="#007AA5" stroke-linecap="round" stroke-linejoin="round" stroke-miterlimit="10" x1="205.5" y1="125.4" x2="242.5" y2="125.4"/>
<line fill="none" stroke="#007AA5" stroke-linecap="round" stroke-linejoin="round" stroke-miterlimit="10" x1="125.8" y1="189" x2="181.7" y2="189"/>
<line fill="none" stroke="#007AA5" stroke-linecap="round" stroke-linejoin="round" stroke-miterlimit="10" x1="125.8" y1="200.6" x2="176.9" y2="200.6"/>
<line fill="none" stroke="#007AA5" stroke-linecap="round" stroke-linejoin="round" stroke-miterlimit="10" x1="125.8" y1="194.8" x2="192.3" y2="194.8"/>
<g>
	
		<rect x="211.5" y="145.2" fill="#007AA5" stroke="#007AA5" stroke-linecap="round" stroke-linejoin="round" stroke-miterlimit="10" width="43.7" height="8.4"/>
</g>
<g>
	
		<rect x="211.5" y="158.8" fill="none" stroke="#007AA5" stroke-linecap="round" stroke-linejoin="round" stroke-miterlimit="10" width="43.7" height="8.4"/>
</g>
</svg>
