<svg xmlns="http://www.w3.org/2000/svg" viewBox="7177 2264.854 429.557 169.322">
  <defs>
    <style>
      .cls-1 {
        fill: #58595b;
      }
    </style>
  </defs>
  <g id="Group_1" data-name="Group 1" transform="translate(6671.5 1949)">
    <path id="path" class="cls-1" d="M247.369,227.167l-9.924-3.1v6.823l2.481,1.861v1.861l-4.342-1.24-4.342,1.24v-1.861l2.481-1.861v-6.823l-9.924,3.1v-2.481l9.924-6.2v-6.823a1.866,1.866,0,0,1,.5-1.365,1.694,1.694,0,0,1,1.365-.5,1.866,1.866,0,0,1,1.365.5,1.694,1.694,0,0,1,.5,1.365v6.823l9.924,6.2Z" transform="translate(507.181 115.495)"/>
    <path id="path-2" data-name="path" class="cls-1" d="M387.392,212.281a1.7,1.7,0,0,1,1.737,1.737V233a1.209,1.209,0,0,1-.5,1.116,1.593,1.593,0,0,1-1.24.5h-9.056a1.593,1.593,0,0,1-1.24-.5,1.347,1.347,0,0,1-.5-1.116V214.018a1.7,1.7,0,0,1,1.737-1.737h1.985V209.8h4.962v2.481Z" transform="translate(545.928 213.495)"/>
    <path id="path-3" data-name="path" class="cls-1" d="M139.781,271.481H112.9L139.781,244.6Z" transform="translate(749.511 75.793)"/>
    <path id="path-4" data-name="path" class="cls-1" d="M173.134,255.4h0l-10.42,13.025L152.17,255.4h0l-3.97-4.838a24.631,24.631,0,0,1,14.39-4.962,24.351,24.351,0,0,1,14.39,4.962Z" transform="translate(561 73.105)"/>
    <path id="path-5" data-name="path" class="cls-1" d="M283.411,244.3l9.033,9.033-9.033,8.874h6.973v12.678H277.706V262.207h5.863l-8.874-8.874V259.2H262.017V246.519h12.678v6.973ZM261.7,274.885V262.207h12.678v12.678Z" transform="translate(623.957 176.47)"/>
    <path id="path-6" data-name="path" class="cls-1" d="M465.8,244.6a2.681,2.681,0,0,1,2.615,2.615v20.918a2.681,2.681,0,0,1-2.615,2.615H450.115a2.681,2.681,0,0,1-2.615-2.615V252.444l7.844-7.844Zm-7.844,7.844v-5.23h-2.615v5.23Zm3.922,0v-5.23h-2.615v5.23Zm3.922,0v-5.23h-2.615v5.23Z" transform="translate(354.978 180.864)"/>
    <path id="path-7" data-name="path" class="cls-1" d="M150.8,280.4h26.536v26.536H150.8Zm11.941,11.794v-8.845H153.9v8.845Zm0,11.794v-8.845H153.9v8.845Zm11.646-11.794v-8.845h-8.845v8.845Zm0,11.794v-8.845h-8.845v8.845Z" transform="translate(737.171 175.474)"/>
    <path id="path-8" data-name="path" class="cls-1" d="M855.613,283.205l18.111,18.111-1.613,1.613-3.349-3.225a7.41,7.41,0,0,1-4.838,1.861,6.757,6.757,0,0,1-5.21-2.233,7.659,7.659,0,0,1-2.233-5.21,11.226,11.226,0,0,1,1.613-5.086L854,284.942ZM871.491,294a6.554,6.554,0,0,1-.124,1.613L860.7,284.942l3.349-4.342c.5.62,1.24,1.489,2.109,2.481a35.727,35.727,0,0,1,3.349,5.086A12.4,12.4,0,0,1,871.491,294Z" transform="translate(-95.717 58.522)"/>
    <path id="path-9" data-name="path" class="cls-1" d="M163.188,315.827h2.44v6.507h-6.507v7.321a.834.834,0,0,1-.813.813h-1.627a.834.834,0,0,1-.813-.813v-8.948H164v-3.254h-.813v.813a.834.834,0,0,1-.813.813h-9.761a.834.834,0,0,1-.813-.813v-3.254a.834.834,0,0,1,.813-.813h9.761a.834.834,0,0,1,.813.813Z" transform="translate(537.171 42.602)"/>
    <path id="path-10" data-name="path" class="cls-1" d="M191.04,331.6l2.481-4.962H189.8V319.2h7.443v7.443l-2.481,4.962Zm9.924,0,2.481-4.962h-3.721V319.2h7.443v7.443l-2.481,4.962Z" transform="translate(548.31 150.805)"/>
    <path id="path-11" data-name="path" class="cls-1" d="M770.075,317.088v25.988L764.3,337.3H744.087a2.96,2.96,0,0,1-2.888-2.887V317.088a2.961,2.961,0,0,1,2.888-2.888h23.1a2.961,2.961,0,0,1,2.888,2.888Z" transform="translate(111.85 108.537)"/>
    <path id="path-12" data-name="path" class="cls-1" d="M779.2,330.106l11.567-11.567,3.96,3.96L783.16,334.066H779.2Zm18.445-10.733-1.876,1.876-3.96-3.96,1.876-1.876a1.007,1.007,0,0,1,1.459,0l2.4,2.4a.946.946,0,0,1,.313.73C797.853,318.852,797.853,319.268,797.645,319.373Z" transform="matrix(0.695, -0.719, 0.719, 0.695, -89.662, 730.757)"/>
    <path id="path-13" data-name="path" class="cls-1" d="M319.641,358.443a5.879,5.879,0,0,1,4.094,1.985,6.126,6.126,0,0,1,1.737,4.218,5.631,5.631,0,0,1-1.861,4.342,6.56,6.56,0,0,1-4.342,1.861H303.143a6.757,6.757,0,0,1-5.21-2.233,7.659,7.659,0,0,1-2.233-5.21,7.259,7.259,0,0,1,1.861-4.962,6.936,6.936,0,0,1,4.714-2.357,11.054,11.054,0,0,1,3.473-3.721A8.429,8.429,0,0,1,310.586,351a9.057,9.057,0,0,1,9.056,7.443Z" transform="translate(249.426 13.452)"/>
    <path id="path-14" data-name="path" class="cls-1" d="M601.362,366.126v-7.443H596.4L605.083,350l8.683,8.683H608.8v7.443Zm-4.962,2.481h17.367v2.481H596.4Z" transform="translate(214.741 52.212)"/>
    <path id="path-15" data-name="path" class="cls-1" d="M640.224,351l2.481,2.481h9.924a2.544,2.544,0,0,1,2.481,2.481v12.4a2.544,2.544,0,0,1-2.481,2.481H632.781a2.544,2.544,0,0,1-2.481-2.481V353.481A2.544,2.544,0,0,1,632.781,351Z" transform="translate(127.894 45.452)"/>
    <path id="path-16" data-name="path" class="cls-1" d="M46.625,393.5l4.159,4.159-4.159,4.159H39V393.5Zm10.4-2.08-4.159,4.159L48.7,391.425V383.8h8.318ZM48.7,403.9l4.159-4.159,4.159,4.159v7.625H48.7Zm10.4-10.4h7.625v8.318H59.1l-4.159-4.159Z" transform="translate(646.144 -59.983)"/>
    <path id="path-17" data-name="path" class="cls-1" d="M176.933,386.8a3.08,3.08,0,0,1,3,3v15.018a3.08,3.08,0,0,1-3,3H152.9a3.08,3.08,0,0,1-3-3V389.8a3.08,3.08,0,0,1,3-3Zm-19.674,7.509v-3h-3v3Zm0,4.505v-3h-3v3Zm1.652-7.509v3h3v-3Zm0,4.505v3h3v-3Zm11.864,9.011v-3H158.761v3Zm-7.359-13.516v3h3v-3Zm0,4.505v3h3v-3Zm7.359-1.5v-3h-3v3Zm0,4.505v-3h-3v3Zm4.505-4.505v-3h-3v3Zm0,4.505v-3h-3v3Z" transform="translate(736.463 -14.6)"/>
    <path id="path-18" data-name="path" class="cls-1" d="M192.537,389.6l5.706,5.706,5.706-5.706,1.737,1.737-7.443,7.443-7.443-7.443Z" transform="translate(497.245 79.735)"/>
    <path id="path-19" data-name="path" class="cls-1" d="M240.258,402.28l-1.978,1.979-8.479-8.479,8.479-8.479,1.978,1.978-6.5,6.5Z" transform="translate(350.346 -51.818)"/>
    <path id="path-20" data-name="path" class="cls-1" d="M727.529,394.724h-2.481V397.2h2.481v2.481h-2.481v2.481a2.544,2.544,0,0,1-2.481,2.481h-2.481v2.481H717.6v-2.481h-2.481v2.481h-2.481v-2.481h-2.481a2.544,2.544,0,0,1-2.481-2.481v-2.481H705.2V397.2h2.481v-2.481H705.2v-2.481h2.481v-2.481a2.544,2.544,0,0,1,2.481-2.481h2.481V384.8h2.481v2.481H717.6V384.8h2.481v2.481h2.481a2.544,2.544,0,0,1,2.481,2.481v2.481h2.481Zm-4.838,7.443v-12.4h-12.4v12.4Zm-2.6-9.924v7.443h-7.443v-7.443ZM717.6,397.2v-2.481h-2.481V397.2Z" transform="translate(37.952 59.581)"/>
    <path id="path-21" data-name="path" class="cls-1" d="M751.883,382.9v9.8H743.2a9.851,9.851,0,0,1,2.481-6.575A9.239,9.239,0,0,1,751.883,382.9ZM743.2,400.143v-4.962h19.848v4.962a9.2,9.2,0,0,1-2.977,6.947,10.106,10.106,0,0,1-6.947,2.977,9.388,9.388,0,0,1-6.947-2.977A9.879,9.879,0,0,1,743.2,400.143ZM754.364,382.9a9.515,9.515,0,0,1,6.2,3.225,9.273,9.273,0,0,1,2.481,6.575h-8.683Z" transform="translate(86.09 40.124)"/>
    <path id="path-22" data-name="path" class="cls-1" d="M951.364,400.027a3.123,3.123,0,0,1,3.046,3.046v6.091a3.122,3.122,0,0,1-3.046,3.045H930.045A3.122,3.122,0,0,1,927,409.164v-6.091a3.123,3.123,0,0,1,3.045-3.046h15.228v-6.091h3.046v6.091Zm-16.75,7.614V404.6h-3.046v3.046Zm5.33,0V404.6H936.9v3.046Zm13.248-18.425a9.195,9.195,0,0,0-12.791,0L939.182,388a10.663,10.663,0,0,1,15.227,0Zm-1.37,1.218-1.218,1.218a5.52,5.52,0,0,0-7.614,0l-1.218-1.218a6.988,6.988,0,0,1,10.05,0Zm-6.548,17.207V404.6h-3.046v3.046Z" transform="translate(-38.8 -44.419)"/>
    <path id="path-23" data-name="path" class="cls-1" d="M318.168,416.6a2.974,2.974,0,0,1,3.1,3.1v23.569a2.974,2.974,0,0,1-3.1,3.1H300.8a2.974,2.974,0,0,1-3.1-3.1V419.7a2.974,2.974,0,0,1,3.1-3.1Zm.62,23.569V420.321H300.181v19.848Zm-10.668,4.466a2.124,2.124,0,1,0-.5-1.365A1.694,1.694,0,0,0,308.12,444.635Z" transform="translate(379.638 19.228)"/>
    <path id="path-24" data-name="path" class="cls-1" d="M647.314,423.582h8.349V438.49H645.227l-.6-2.982h-8.349v10.436H633.3V420.6h13.418Z" transform="translate(259.947 -102.9)"/>
    <path id="path-25" data-name="path" class="cls-1" d="M903.039,1017.155a3.914,3.914,0,0,1,2.725,1.321,4.079,4.079,0,0,1,1.156,2.808,3.748,3.748,0,0,1-1.239,2.89,4.368,4.368,0,0,1-2.891,1.239H892.055a4.5,4.5,0,0,1-3.469-1.487,5.1,5.1,0,0,1-1.487-3.469,4.833,4.833,0,0,1,1.239-3.3,4.618,4.618,0,0,1,3.138-1.569,7.359,7.359,0,0,1,2.312-2.478,5.612,5.612,0,0,1,3.221-.908,6.28,6.28,0,0,1,3.964,1.4A5.632,5.632,0,0,1,903.039,1017.155Zm-4.377,2.478h2.478l-4.129-4.129-4.129,4.129h2.477v3.3h3.3Z" transform="translate(-53.138 -639.338)"/>
    <path id="path-26" data-name="path" class="cls-1" d="M671.181,1048.981a12.722,12.722,0,0,1,9.5-3.881,13.246,13.246,0,0,1,9.5,3.881,12.521,12.521,0,0,1,3.881,9.5,13.246,13.246,0,0,1-3.881,9.5,12.521,12.521,0,0,1-9.5,3.881,13.245,13.245,0,0,1-9.5-3.881,12.521,12.521,0,0,1-3.881-9.5A13.025,13.025,0,0,1,671.181,1048.981Zm12.446,12.312,5.086-10.974-10.974,5.086-5.085,10.974Zm-4.015-4.015a1.629,1.629,0,1,1-.4,1.071A1.52,1.52,0,0,1,679.612,1057.278Z" transform="translate(-7.717 -669.9)"/>
    <path id="path-27" data-name="path" class="cls-1" d="M790.636,1068.759l-1.865-1.617q-3.171-2.8-4.477-4.1a44.672,44.672,0,0,1-3.109-3.358,12.653,12.653,0,0,1-2.363-3.607,9.929,9.929,0,0,1-.622-3.234,6.794,6.794,0,0,1,6.84-6.84,7.069,7.069,0,0,1,5.6,2.612,7.07,7.07,0,0,1,5.6-2.612,6.2,6.2,0,0,1,4.85,1.99,7.091,7.091,0,0,1,1.99,4.85,9.121,9.121,0,0,1-1.492,4.726,23.588,23.588,0,0,1-3.234,4.228c-1.119,1.119-3.109,2.985-5.845,5.472Z" transform="translate(-243.697 -657.788)"/>
    <path id="path-28" data-name="path" class="cls-1" d="M449.5,1079.8h13.566v6.783l-4.522,4.522,4.522,4.522v6.783H449.5v-6.783l4.522-4.522-4.522-4.522Z" transform="translate(176.217 -654.305)"/>
    <path id="path-29" data-name="path" class="cls-1" d="M522.549,1082.949a9.994,9.994,0,0,1,7.464-3.049,10.406,10.406,0,0,1,7.464,3.049,9.837,9.837,0,0,1,3.049,7.464,10.406,10.406,0,0,1-3.049,7.464,9.836,9.836,0,0,1-7.464,3.049,10.405,10.405,0,0,1-7.464-3.049,10.662,10.662,0,0,1,0-14.929Zm8.411,4.205v-2.1h-2.1v2.1Zm0,8.411v-6.308h-2.1v6.308Z" transform="translate(42.1 -649.126)"/>
    <path id="path-30" data-name="path" class="cls-1" d="M643.016,1083.5l3.531,4.895-3.531,4.895a1.46,1.46,0,0,1-1.284.642H632.9a1.645,1.645,0,0,1-1.6-1.6v-8.024a1.645,1.645,0,0,1,1.6-1.6h8.827A1.722,1.722,0,0,1,643.016,1083.5Z" transform="translate(-81.488 -662.669)"/>
    <path id="path-31" data-name="path" class="cls-1" d="M948.88,1091.122a2.28,2.28,0,0,1,0,3.3l-8.255,8.256a2.28,2.28,0,0,1-3.3,0l-10.614-10.614a2.142,2.142,0,0,1-.708-1.651v-8.255a2.418,2.418,0,0,1,2.359-2.359h8.255a2.141,2.141,0,0,1,1.651.708Zm-20.049-5.9a2.02,2.02,0,1,0-.472-1.3A1.611,1.611,0,0,0,928.831,1085.225Zm15.214,10.26a2.953,2.953,0,0,0,.943-2.123,3,3,0,0,0-5.071-2.123l-.943.944-.826-.944a3,3,0,0,0-4.246,4.246l5.071,5.071Z" transform="translate(-361.688 -731.552)"/>
    <path id="path-32" data-name="path" class="cls-1" d="M985.385,1085.262a2.55,2.55,0,0,1,2.487,2.487v14.924a2.55,2.55,0,0,1-2.487,2.487h-19.9a2.55,2.55,0,0,1-2.487-2.487v-14.924a2.55,2.55,0,0,1,2.487-2.487h2.487V1077.8h9.949v4.975h-7.462v9.949h2.487v-7.462Z" transform="translate(-370.672 -739.04)"/>
    <path id="path-33" data-name="path" class="cls-1" d="M651.442,1121.818a3.825,3.825,0,0,1,3.731,3.731v7.462H650.2v4.975H635.275v-4.975H630.3v-7.462a3.825,3.825,0,0,1,3.731-3.731ZM650.2,1115.6v4.975H635.275V1115.6Zm-2.487,19.9v-6.218h-9.949v6.218Zm2.86-9.078a1.2,1.2,0,1,0-.373-.87A1.129,1.129,0,0,0,650.571,1126.42Z" transform="translate(-37.731 -716.83)"/>
    <path id="path-34" data-name="path" class="cls-1" d="M724.664,1128.176a1.392,1.392,0,0,1-1.358,1.358H709.73l-5.431,5.431v-19.007a1.392,1.392,0,0,1,1.358-1.358h17.649a1.392,1.392,0,0,1,1.358,1.358Zm5.295-8.146a1.392,1.392,0,0,1,1.358,1.358v20.364l-5.43-5.431H710.952a1.392,1.392,0,0,1-1.358-1.358v-2.715h17.649V1120.03Z" transform="translate(-111.558 -656.576)"/>
    <path id="path-35" data-name="path" class="cls-1" d="M814.1,1138.229l13.68-23.629,13.68,23.629Zm14.924-8.706v-4.974h-2.487v4.974Zm0,4.975v-2.487h-2.487v2.487Z" transform="translate(-298.951 -716.074)"/>
    <path id="path-36" data-name="path" class="cls-1" d="M605.3,1147.4a13.227,13.227,0,0,1,9.7,3.98l-1.741,1.741a10.694,10.694,0,0,0-7.959-3.233,11.19,11.19,0,0,0-7.959,3.233l-1.741-1.741A13.228,13.228,0,0,1,605.3,1147.4Zm-6.218,7.586a8.709,8.709,0,0,1,12.436,0l-1.741,1.741a6.305,6.305,0,0,0-8.954,0Zm9.949,3.607a1.275,1.275,0,0,1,1.244,1.244v14.924a1.275,1.275,0,0,1-1.244,1.244h-7.462a1.275,1.275,0,0,1-1.244-1.244v-14.924a1.275,1.275,0,0,1,1.244-1.244Zm-5.472,6.716a2.4,2.4,0,1,0-.746-1.741A2.039,2.039,0,0,0,603.559,1165.308Z" transform="translate(230.814 -759.082)"/>
    <path id="path-37" data-name="path" class="cls-1" d="M760.323,1158.105h5.969a1.275,1.275,0,0,1,1.244,1.244c-.373,1.492-.995,3.731-1.741,6.591s-1.244,4.6-1.492,5.348a2.277,2.277,0,0,1-2.363,1.865H745.772a2.277,2.277,0,0,1-2.363-1.865l-3.109-11.566v-.373a1.275,1.275,0,0,1,1.244-1.244h5.969l5.472-8.208a1.131,1.131,0,0,1,.995-.5c.373,0,.871.124.995.5Zm-10.2,0h7.462l-3.731-5.472Zm1.99,9.2a2.4,2.4,0,1,0-.746-1.741A2.455,2.455,0,0,0,752.115,1167.308Z" transform="translate(-211.931 -722.595)"/>
    <path id="path-38" data-name="path" class="cls-1" d="M777.1,1149.4h3.669l1,2.224h16.456a1.169,1.169,0,0,1,1,1.668l-4,7.227a2.064,2.064,0,0,1-1.89,1.112h-8.339l-1,1.779v.111c0,.222.111.222.222.222h12.9v2.224H783.771a2.28,2.28,0,0,1-2.224-2.224,3.246,3.246,0,0,1,.222-1l1.557-2.78-4-8.45H777.1Zm5.226,18.457a2.15,2.15,0,1,1-.667,1.557A2.2,2.2,0,0,1,782.326,1167.857Zm11.119,0a2.15,2.15,0,1,1-.667,1.557A2.2,2.2,0,0,1,793.444,1167.857Z" transform="translate(-110.33 -800.96)"/>
    <path id="path-39" data-name="path" class="cls-1" d="M893.209,1153.609a13.469,13.469,0,0,1,10.059-4.109,14.023,14.023,0,0,1,10.059,4.109,13.256,13.256,0,0,1,4.109,10.059,14.023,14.023,0,0,1-4.109,10.059,13.255,13.255,0,0,1-10.059,4.109,14.023,14.023,0,0,1-10.059-4.109,14.368,14.368,0,0,1,0-20.118Zm16.01,18.418-1.558-6.8,5.384-4.534-6.942-.567-2.692-6.376-2.692,6.376-6.942.567,5.384,4.534-1.558,6.8,5.951-3.542Z" transform="translate(-297.678 -724.034)"/>
    <path id="path-40" data-name="path" class="cls-1" d="M953.416,1166.075h-1.468v8.805h-2.935v-8.805h-5.87v8.805H928.468v-8.805H927v-2.935l1.468-7.338h23.481l1.468,7.338Zm-1.468-14.676v2.935H928.468V1151.4Zm-11.74,20.546v-5.87H931.4v5.87Z" transform="translate(-335.444 -780.69)"/>
    <path id="path-41" data-name="path" class="cls-1" d="M462.5,1185.2a2.051,2.051,0,0,1,2,2v14a2.051,2.051,0,0,1-2,2h-14a1.816,1.816,0,0,1-1.4-.6,1.974,1.974,0,0,1-.6-1.4v-14a2.051,2.051,0,0,1,2-2h1v-2h2v2h8v-2h2v2Zm0,16v-11h-14v11Zm-12-9h5v5h-5Z" transform="translate(59 -754)"/>
    <path id="path-42" data-name="path" class="cls-1" d="M654.929,1195.174l-4.975,4.975v-3.731H631.3v-2.487h18.655V1190.2Z" transform="translate(-717.24 -58.845) rotate(-45)"/>
    <path id="path-43" data-name="path" class="cls-1" d="M753.4,1185.2a1.571,1.571,0,0,1,1.533,1.533v12.261l-5.364-2.3-5.364,2.3v-12.261a1.571,1.571,0,0,1,1.533-1.533Z" transform="translate(3.702 -830.873)"/>
    <path id="path-44" data-name="path" class="cls-1" d="M785.433,1183.2l6.233,2.77v4.155a8.642,8.642,0,0,1-1.8,5.263,7.745,7.745,0,0,1-4.432,3.047,7.531,7.531,0,0,1-4.432-3.047,8.642,8.642,0,0,1-1.8-5.263v-4.155Zm-1.454,11.08,5.54-5.54-.97-.969-4.57,4.571-1.8-1.8-.97.969Z" transform="translate(-200.055 -763.279)"/>
    <path id="path-45" data-name="path" class="cls-1" d="M889.1,1206.259v-16.973h6.172v16.973Zm7.561,3.086V1186.2h15.43v23.145Zm16.973-20.059h6.172v16.973h-6.172Z" transform="translate(-4.299 -789.748)"/>
    <path id="path-46" data-name="path" class="cls-1" d="M485.5,1236.924h17.411v2.487H485.5ZM494.205,1222l8.332,12.436H486Z" transform="translate(363.907 -869.3)"/>
    <path id="path-47" data-name="path" class="cls-1" d="M23.84,428.671a2.293,2.293,0,0,1,1.116.868,2.067,2.067,0,0,1,.5,1.365v6.823a2.544,2.544,0,0,1-2.481,2.481H5.481A2.544,2.544,0,0,1,3,437.726v-4.962a2.544,2.544,0,0,1,2.481-2.481h15.63L3.62,423.957l.868-2.357ZM7.962,436.486V434H5.481v2.481Zm14.886,0V434h-12.4v2.481Z" transform="translate(590.95 -105.746)"/>
    <path id="path-48" data-name="path" class="cls-1" d="M707.041,631.776a10.486,10.486,0,0,1,11.971,0,10.669,10.669,0,0,1,3.841,4.824,10.223,10.223,0,0,1-3.841,4.824,10.793,10.793,0,0,1-5.985,1.876,10.132,10.132,0,0,1-5.985-1.876A10.669,10.669,0,0,1,703.2,636.6,10.669,10.669,0,0,1,707.041,631.776Zm2.859,8.04a4.334,4.334,0,0,0,3.127,1.34,4.191,4.191,0,0,0,3.127-1.34,4.725,4.725,0,0,0,1.34-3.127,4.19,4.19,0,0,0-1.34-3.127,4.725,4.725,0,0,0-3.127-1.34,4.19,4.19,0,0,0-3.127,1.34,4.724,4.724,0,0,0-1.34,3.127A4.334,4.334,0,0,0,709.9,639.816Zm1.251-5.092a2.591,2.591,0,1,1-.8,1.876A2.571,2.571,0,0,1,711.151,634.724Z" transform="translate(163 -280.4)"/>
    <path id="path-49" data-name="path" class="cls-1" d="M926.177,640.737a1.47,1.47,0,0,1-.816-.816,1.447,1.447,0,0,1,0-1.113l1.78-4.377v6.677Zm14.466-2.745a1.446,1.446,0,0,1,0,1.113,1.469,1.469,0,0,1-.816.816l-5.49,2.226a1.446,1.446,0,0,1-.594.074,1.3,1.3,0,0,1-1.335-.89l-3.709-8.9a1.634,1.634,0,0,1-.074-.593,1.426,1.426,0,0,1,.89-1.335l5.49-2.226a1.634,1.634,0,0,1,.593-.074,1.426,1.426,0,0,1,1.335.89ZM928.7,640.812v-4.674l2.6,6.157h-1.113a1.521,1.521,0,0,1-1.484-1.484Zm.964-8.383a.717.717,0,1,0-.222-.519A.674.674,0,0,0,929.664,632.429Z" transform="translate(-70.261 -256)"/>
    <path id="path-50" data-name="path" class="cls-1" d="M633.338,674.124v2.692H629.3v-2.692Zm3.768-7.672-1.884,1.884-2.423-2.423,1.884-1.884ZM632.8,685.026l2.423-2.423,1.884,1.884-2.423,2.423Zm5.653-15.209a7.747,7.747,0,0,1,5.653-2.423,7.534,7.534,0,0,1,5.653,2.423,8.309,8.309,0,0,1,2.423,5.653,7.534,7.534,0,0,1-2.423,5.653,8.31,8.31,0,0,1-5.653,2.423,7.534,7.534,0,0,1-5.653-2.423,8.309,8.309,0,0,1-2.423-5.653A7.534,7.534,0,0,1,638.452,669.818Zm7-9.018v4.038h-2.692V660.8Zm-2.692,29.475v-4.038h2.692v4.038Zm12.786-24.226-2.423,2.423-1.884-1.884,2.423-2.423Zm-4.307,18.439,1.884-1.884,2.423,2.423-1.884,1.884Zm3.634-10.363h4.038v2.692h-4.038Z" transform="translate(128 -295.575)"/>
    <path id="path-51" data-name="path" class="cls-1" d="M669.865,667.331v17.958h17.958v2.565H669.865a2.63,2.63,0,0,1-2.565-2.565V667.331Zm20.524-5.131a2.63,2.63,0,0,1,2.565,2.565v15.393a2.63,2.63,0,0,1-2.565,2.565H675a2.63,2.63,0,0,1-2.565-2.565V664.766A2.63,2.63,0,0,1,675,662.2Zm0,12.828V664.766h-6.414v10.262l3.207-1.924Z" transform="translate(42 -204.655)"/>
    <path id="path-52" data-name="path" class="cls-1" d="M727.011,663.2a2.441,2.441,0,0,1,2.381,2.381v16.668a2.441,2.441,0,0,1-2.381,2.381h-21.43a2.441,2.441,0,0,1-2.381-2.381V665.581a2.441,2.441,0,0,1,2.381-2.381Zm-18.93,16.668h16.668l-5.357-7.143-4.167,5.357-2.976-3.572Z" transform="translate(49.808 -243.43)"/>
    <path id="path-53" data-name="path" class="cls-1" d="M11.621,801.4h8.246l2.474,2.749h4.4a2.818,2.818,0,0,1,2.749,2.749V823.39a2.818,2.818,0,0,1-2.749,2.749H4.749a2.714,2.714,0,0,1-1.924-.825A2.714,2.714,0,0,1,2,823.39V806.9a2.714,2.714,0,0,1,.825-1.924,2.713,2.713,0,0,1,1.924-.825h4.4Zm-.687,18.692a6.668,6.668,0,0,0,4.81,2.062,6.238,6.238,0,0,0,4.81-2.062,7.269,7.269,0,0,0,2.062-4.81,6.447,6.447,0,0,0-2.062-4.81,7.268,7.268,0,0,0-4.81-2.062,6.239,6.239,0,0,0-4.81,2.062,6.677,6.677,0,0,0-2.062,4.673A6.748,6.748,0,0,0,10.933,820.092ZM12.72,818.3a4.261,4.261,0,0,1,3.024-7.284,4.041,4.041,0,0,1,3.024,1.237,4.261,4.261,0,0,1-3.024,7.284A4.042,4.042,0,0,1,12.72,818.3Z" transform="translate(666 -393.739)"/>
    <path id="path-54" data-name="path" class="cls-1" d="M563.068,815.651,557.3,814.5l.33-1.648,4.038.824L562.986,807l-1.483.577v2.8h-1.648V806.5l4.285-1.813h.659a1.619,1.619,0,0,1,1.4.824l.824,1.318a3.742,3.742,0,0,0,3.544,1.978v1.648a5.74,5.74,0,0,1-4.532-2.06l-.494,2.472,1.73,1.648V818.7h-1.648v-4.944l-1.731-1.648Zm4.12-11.949a1.593,1.593,0,1,1,.494-1.154A1.627,1.627,0,0,1,567.189,803.7Z" transform="translate(287.116 -413)"/>
  </g>
</svg>
