<svg xmlns="http://www.w3.org/2000/svg" viewBox="12449 8368 12.363 17"><defs><style>.a{fill:#f9f9f9;fill-rule:evenodd;}</style></defs><path class="a" d="M732.3,230.3h1.375s.952.09.952.929v12.1a.951.951,0,0,1-.952.949h-8.976s-.942-.109-.942-.949v-12.1c0-.84.942-.929.942-.929h1.376v-.75h-1.376a1.654,1.654,0,0,0-1.694,1.68v12.1a1.654,1.654,0,0,0,1.694,1.68h8.976a1.655,1.655,0,0,0,1.694-1.68v-12.1a1.655,1.655,0,0,0-1.694-1.68H732.3Zm-3.113-2.3a1.494,1.494,0,0,0-1.545,1.551.791.791,0,0,0-.773.787.751.751,0,0,0,.773.753h3.091a.708.708,0,0,0,.773-.753.744.744,0,0,0-.773-.787A1.494,1.494,0,0,0,729.182,228Zm.773,1.545a.773.773,0,1,0-.773.773A.773.773,0,0,0,729.955,229.545Z" transform="translate(11726 8140)"/></svg>