<svg xmlns="http://www.w3.org/2000/svg" viewBox="8909 6133.964 48.966 48.966"><defs><style>.a{fill:#686961;}</style></defs><g transform="translate(8203.566 5914.495)"><g transform="translate(705.433 219.469)"><g transform="translate(0 0)"><path class="a" d="M404.45,407.573H390.46a4.858,4.858,0,1,0,4.7,6.074l.413-1.6h3.755l.413,1.6a4.858,4.858,0,1,0,4.7-6.074Z" transform="translate(-375.789 -394.943)"/><path class="a" d="M351.055,316.435v25c0,6.857-5.186,12.436-11.561,12.436-6.1,0-11.115-5.115-11.53-11.57a2.622,2.622,0,0,1,.163-5.238h5.246a2.623,2.623,0,0,1,.244,5.234c.371,3.344,2.864,5.939,5.877,5.939,3.268,0,5.926-3.051,5.926-6.8v-9.925a9.131,9.131,0,0,1-14.67.937,9.134,9.134,0,1,1-7-15.009h13.99a9.131,9.131,0,0,1,7.675,4.193v-9.491a24.515,24.515,0,1,0,5.635,4.294Z" transform="translate(-309.084 -309.084)"/></g></g></g></svg>