<?xml version="1.0" encoding="UTF-8" standalone="no"?>
<!-- Created with Inkscape (http://www.inkscape.org/) -->

<svg
   xmlns:dc="http://purl.org/dc/elements/1.1/"
   xmlns:cc="http://creativecommons.org/ns#"
   xmlns:rdf="http://www.w3.org/1999/02/22-rdf-syntax-ns#"
   xmlns:svg="http://www.w3.org/2000/svg"
   xmlns="http://www.w3.org/2000/svg"
   xmlns:sodipodi="http://sodipodi.sourceforge.net/DTD/sodipodi-0.dtd"
   xmlns:inkscape="http://www.inkscape.org/namespaces/inkscape"
   width="114.90311"
   height="24.980537"
   viewBox="0 0 30.401448 6.6094334"
   version="1.1"
   id="svg8"
   inkscape:version="0.92.2 (5c3e80d, 2017-08-06)"
   sodipodi:docname="header-logo.svg">
  <defs
     id="defs2" />
  <sodipodi:namedview
     id="base"
     pagecolor="#ffffff"
     bordercolor="#666666"
     borderopacity="1.0"
     inkscape:pageopacity="0.0"
     inkscape:pageshadow="2"
     inkscape:zoom="5.6568542"
     inkscape:cx="53.5935"
     inkscape:cy="0.60962192"
     inkscape:document-units="mm"
     inkscape:current-layer="text932"
     inkscape:document-rotation="0"
     showgrid="false"
     borderlayer="true"
     inkscape:showpageshadow="false"
     units="px"
     inkscape:pagecheckerboard="false"
     showguides="true"
     inkscape:window-width="1366"
     inkscape:window-height="715"
     inkscape:window-x="0"
     inkscape:window-y="0"
     inkscape:window-maximized="1"
     fit-margin-top="0"
     fit-margin-left="0"
     fit-margin-right="0"
     fit-margin-bottom="0">
    <inkscape:grid
       type="xygrid"
       id="grid10"
       originx="-217.54417"
       originy="-112.11083" />
  </sodipodi:namedview>
  <metadata
     id="metadata5">
    <rdf:RDF>
      <cc:Work
         rdf:about="">
        <dc:format>image/svg+xml</dc:format>
        <dc:type
           rdf:resource="http://purl.org/dc/dcmitype/StillImage" />
        <dc:title></dc:title>
      </cc:Work>
    </rdf:RDF>
  </metadata>
  <g
     inkscape:label="Layer 1"
     inkscape:groupmode="layer"
     id="layer1"
     transform="translate(-217.54414,-178.27977)">
    <g
       style="fill:#58595b;fill-opacity:1;stroke:none;stroke-opacity:1"
       transform="matrix(0.07500175,0,0,-0.07500175,217.54414,184.8892)"
       id="g3579"
       inkscape:export-ydpi="96"
       inkscape:export-xdpi="96">
      <g
         id="g853"
         transform="translate(68.66751,-1.3640007e-5)"
         style="fill:#58595b;fill-opacity:1;stroke:none;stroke-width:2.33401752;stroke-miterlimit:4;stroke-dasharray:none;stroke-opacity:1">
        <path
           d="M 0,0 H 19.456 V 27.225 C 10.401,35.226 -1.597,40.776 -15.03,42.584 Z"
           style="fill:#58595b;fill-opacity:1;fill-rule:nonzero;stroke:none;stroke-width:2.33401752;stroke-miterlimit:4;stroke-dasharray:none;stroke-opacity:1"
           id="path855"
           inkscape:connector-curvature="0" />
      </g>
      <path
         transform="translate(1.1677798e-5,-1.3640007e-5)"
         d="m 0,0 h 19.457 l 15.03,42.584 C 21.053,40.776 9.056,35.226 0,27.225 Z"
         style="fill:#58595b;fill-opacity:1;fill-rule:nonzero;stroke:none;stroke-width:2.33401752;stroke-linecap:square;stroke-linejoin:miter;stroke-miterlimit:4;stroke-dasharray:none;stroke-opacity:1"
         id="path857"
         inkscape:connector-curvature="0" />
      <g
         id="g859"
         transform="translate(44.061317,50.790712)"
         style="fill:#58595b;fill-opacity:1;stroke:none;stroke-width:2.33401752;stroke-miterlimit:4;stroke-dasharray:none;stroke-opacity:1">
        <path
           d="M 0,0 C 16.285,0 31.708,-4.906 44.063,-13.882 V 37.333 H -44.061 V -13.883 C -31.707,-4.906 -16.284,0 0,0"
           style="fill:#58595b;fill-opacity:1;fill-rule:nonzero;stroke:none;stroke-width:2.33401752;stroke-miterlimit:4;stroke-dasharray:none;stroke-opacity:1"
           id="path861"
           inkscape:connector-curvature="0" />
      </g>
      <g
         aria-label="identihub"
         transform="scale(1,-1)"
         style="font-style:normal;font-variant:normal;font-weight:800;font-stretch:normal;font-size:71.82733154px;line-height:1.25;font-family:Overpass;-inkscape-font-specification:'Overpass Ultra-Bold';text-align:center;text-anchor:middle;opacity:1;fill:#58595b;fill-opacity:1;stroke:none;stroke-width:2.33401752;stroke-miterlimit:4;stroke-dasharray:none;stroke-opacity:1"
         id="text932">
        <path
           d="m 117.91995,-60.903978 q -2.22665,0 -3.87867,-1.580201 -1.58021,-1.652029 -1.58021,-3.878676 0,-2.226647 1.58021,-3.806849 1.5802,-1.580201 3.87867,-1.580201 2.29848,0 3.87868,1.580201 1.5802,1.508374 1.5802,3.806849 0,2.298475 -1.5802,3.878676 -1.5802,1.580201 -3.87868,1.580201 z m -4.66878,41.013406 v -36.703766 h 9.33756 v 36.703766 z"
           style="font-style:normal;font-variant:normal;font-weight:800;font-stretch:normal;font-family:Overpass;-inkscape-font-specification:'Overpass Ultra-Bold';text-align:start;letter-spacing:-2.25px;text-anchor:start;fill:#58595b;fill-opacity:1;stroke:none;stroke-width:2.33401752;stroke-miterlimit:4;stroke-dasharray:none;stroke-opacity:1"
           id="path821"
           inkscape:connector-curvature="0" />
        <path
           d="m 144.49067,-19.028644 q -7.03908,0 -11.13324,-5.027913 -4.02233,-5.027913 -4.02233,-14.221811 0,-8.762935 4.23781,-13.934503 4.30964,-5.243395 10.98959,-5.243395 5.02791,0 7.82917,3.519539 v -13.575365 l 9.33756,-4.237813 v 51.859333 h -9.33756 v -2.657611 q -2.3703,3.519539 -7.901,3.519539 z m 1.50837,-8.978416 q 4.30964,0 6.39263,-2.944921 v -14.509121 q -2.22664,-3.016748 -6.39263,-3.016748 -3.51954,0 -5.45888,2.657612 -1.86751,2.585784 -1.86751,7.54187 0,4.812431 1.86751,7.541869 1.93934,2.729439 5.45888,2.729439 z"
           style="font-style:normal;font-variant:normal;font-weight:800;font-stretch:normal;font-family:Overpass;-inkscape-font-specification:'Overpass Ultra-Bold';text-align:start;letter-spacing:-2.25px;text-anchor:start;fill:#58595b;fill-opacity:1;stroke:none;stroke-width:2.33401752;stroke-miterlimit:4;stroke-dasharray:none;stroke-opacity:1"
           id="path823"
           inkscape:connector-curvature="0" />
        <path
           d="m 185.63672,-19.028644 q -7.97283,0 -12.56978,-5.09974 -4.59695,-5.099741 -4.59695,-14.149984 0,-8.834762 4.59695,-14.00633 4.66878,-5.171568 12.56978,-5.171568 7.18274,0 11.70786,4.453295 4.52512,4.381467 4.52512,12.857092 0,3.519539 -0.28731,5.530704 h -23.9185 q 0.28731,3.447712 2.51396,5.458878 2.29847,1.939338 5.45887,1.939338 4.88426,0 7.90101,-3.806849 l 5.74619,5.818014 q -5.09974,6.17715 -13.6472,6.17715 z m -7.901,-23.487537 h 15.01191 q -0.43097,-3.160403 -2.3703,-4.956086 -1.86751,-1.795683 -4.74061,-1.795683 -7.03908,0 -7.901,6.751769 z"
           style="font-style:normal;font-variant:normal;font-weight:800;font-stretch:normal;font-family:Overpass;-inkscape-font-specification:'Overpass Ultra-Bold';text-align:start;letter-spacing:-2.25px;text-anchor:start;fill:#58595b;fill-opacity:1;stroke:none;stroke-width:2.33401752;stroke-miterlimit:4;stroke-dasharray:none;stroke-opacity:1"
           id="path825"
           inkscape:connector-curvature="0" />
        <path
           d="m 230.97569,-19.890572 v -20.111652 q 0,-4.453295 -1.5802,-6.46446 -1.50837,-2.011166 -4.81243,-2.011166 -6.96725,0 -6.96725,8.331971 v 20.255307 h -9.33756 v -36.703766 h 9.33756 v 3.447712 q 3.51954,-4.30964 9.84034,-4.30964 5.45888,0 9.12207,3.447712 3.73502,3.375885 3.73502,10.989582 v 23.1284 z"
           style="font-style:normal;font-variant:normal;font-weight:800;font-stretch:normal;font-family:Overpass;-inkscape-font-specification:'Overpass Ultra-Bold';text-align:start;letter-spacing:-2.25px;text-anchor:start;fill:#58595b;fill-opacity:1;stroke:none;stroke-width:2.33401752;stroke-miterlimit:4;stroke-dasharray:none;stroke-opacity:1"
           id="path827"
           inkscape:connector-curvature="0" />
        <path
           d="m 259.4532,-19.028644 q -8.90659,0 -8.90659,-9.696689 v -19.680689 h -5.2434 v -8.188316 h 5.2434 V -67.29661 l 9.33755,-4.453295 v 15.155567 h 8.18832 v 8.188316 h -8.18832 v 18.315969 q 0,2.873094 2.58578,2.873094 2.94492,0 6.0335,-1.580202 l -1.07741,8.116489 q -3.44771,1.652028 -7.97283,1.652028 z"
           style="font-style:normal;font-variant:normal;font-weight:800;font-stretch:normal;font-family:Overpass;-inkscape-font-specification:'Overpass Ultra-Bold';text-align:start;letter-spacing:-2.25px;text-anchor:start;fill:#58595b;fill-opacity:1;stroke:none;stroke-width:2.33401752;stroke-miterlimit:4;stroke-dasharray:none;stroke-opacity:1"
           id="path829"
           inkscape:connector-curvature="0" />
        <path
           d="m 279.22389,-60.903978 q -2.22665,0 -3.87867,-1.580201 -1.58021,-1.652029 -1.58021,-3.878676 0,-2.226647 1.58021,-3.806849 1.5802,-1.580201 3.87867,-1.580201 2.29848,0 3.87868,1.580201 1.5802,1.508374 1.5802,3.806849 0,2.298475 -1.5802,3.878676 -1.5802,1.580201 -3.87868,1.580201 z m -4.66878,41.013406 v -36.703766 h 9.33756 v 36.703766 z"
           style="font-style:normal;font-variant:normal;font-weight:800;font-stretch:normal;font-family:Overpass;-inkscape-font-specification:'Overpass Ultra-Bold';text-align:start;letter-spacing:-2.25px;text-anchor:start;fill:#58595b;fill-opacity:1;stroke:none;stroke-width:2.33401752;stroke-miterlimit:4;stroke-dasharray:none;stroke-opacity:1"
           id="path831"
           inkscape:connector-curvature="0" />
        <path
           d="m 292.43472,-19.890572 v -47.549693 l 9.33755,-4.30964 v 18.603279 q 3.51954,-4.30964 9.84035,-4.30964 5.45887,0 9.12207,3.447712 3.73502,3.375885 3.73502,10.989582 v 23.1284 h -9.33755 v -20.470789 q 0,-8.116489 -6.39264,-8.116489 -6.96725,0 -6.96725,7.972834 v 20.614444 z"
           style="font-style:normal;font-variant:normal;font-weight:800;font-stretch:normal;font-family:Overpass;-inkscape-font-specification:'Overpass Ultra-Bold';text-align:start;letter-spacing:-2.25px;text-anchor:start;fill:#58595b;fill-opacity:1;stroke:none;stroke-width:2.33401752;stroke-miterlimit:4;stroke-dasharray:none;stroke-opacity:1"
           id="path833"
           inkscape:connector-curvature="0" />
        <path
           d="m 355.03022,-19.890572 v -3.447712 q -3.44771,4.30964 -9.84034,4.30964 -5.38705,0 -9.12207,-3.447712 -3.73503,-3.447711 -3.73503,-10.989581 v -23.128401 h 9.33756 v 20.111653 q 0,4.381467 1.50837,6.46446 1.5802,2.011165 4.88426,2.011165 6.96725,0 6.96725,-8.331971 v -20.255307 h 9.33755 v 36.703766 z"
           style="font-style:normal;font-variant:normal;font-weight:800;font-stretch:normal;font-family:Overpass;-inkscape-font-specification:'Overpass Ultra-Bold';text-align:start;letter-spacing:-2.25px;text-anchor:start;fill:#58595b;fill-opacity:1;stroke:none;stroke-width:2.33401752;stroke-miterlimit:4;stroke-dasharray:none;stroke-opacity:1"
           id="path835"
           inkscape:connector-curvature="0" />
        <path
           d="m 389.75669,-19.028644 q -4.95609,0 -7.47004,-3.519539 v 2.657611 h -9.33756 v -47.62152 l 9.33756,-4.237813 v 17.813178 q 2.80126,-3.519539 7.82917,-3.519539 6.67995,0 10.91776,5.243395 4.30964,5.171568 4.30964,13.934503 0,9.193898 -4.16599,14.221811 -4.16598,5.027913 -11.42054,5.027913 z m -1.07741,-8.978416 q 3.51954,0 5.38705,-2.729439 1.93934,-2.729438 1.93934,-7.541869 0,-4.956086 -1.93934,-7.54187 -1.86751,-2.657612 -5.38705,-2.657612 -4.30964,0 -6.39263,3.016748 v 14.509121 q 2.08299,2.944921 6.39263,2.944921 z"
           style="font-style:normal;font-variant:normal;font-weight:800;font-stretch:normal;font-family:Overpass;-inkscape-font-specification:'Overpass Ultra-Bold';text-align:start;letter-spacing:-2.25px;text-anchor:start;fill:#58595b;fill-opacity:1;stroke:none;stroke-width:2.33401752;stroke-miterlimit:4;stroke-dasharray:none;stroke-opacity:1"
           id="path837"
           inkscape:connector-curvature="0" />
      </g>
    </g>
  </g>
</svg>
